<?xml version="1.0" encoding="UTF-8" standalone="no"?>
<!-- Created with Inkscape (http://www.inkscape.org/) -->

<svg
   width="512"
   height="512"
   viewBox="0 0 135.46666 135.46667"
   version="1.1"
   id="svg1"
   inkscape:version="1.3.2 (091e20e, 2023-11-25, custom)"
   sodipodi:docname="ward-wise-logo.svg"
   inkscape:export-filename="Icon-maskable-192.png"
   inkscape:export-xdpi="36"
   inkscape:export-ydpi="36"
   xmlns:inkscape="http://www.inkscape.org/namespaces/inkscape"
   xmlns:sodipodi="http://sodipodi.sourceforge.net/DTD/sodipodi-0.dtd"
   xmlns="http://www.w3.org/2000/svg"
   xmlns:svg="http://www.w3.org/2000/svg">
  <sodipodi:namedview
     id="namedview1"
     pagecolor="#ffffff"
     bordercolor="#000000"
     borderopacity="0.25"
     inkscape:showpageshadow="2"
     inkscape:pageopacity="0.0"
     inkscape:pagecheckerboard="0"
     inkscape:deskcolor="#d1d1d1"
     inkscape:document-units="mm"
     showguides="false"
     inkscape:zoom="0.7011013"
     inkscape:cx="-39.224004"
     inkscape:cy="-20.681747"
     inkscape:window-width="1920"
     inkscape:window-height="1001"
     inkscape:window-x="-9"
     inkscape:window-y="-9"
     inkscape:window-maximized="1"
     inkscape:current-layer="svg1"
     inkscape:export-bgcolor="#ffffff00">
    <sodipodi:guide
       position="0,135.46666"
       orientation="0,512"
       id="guide1"
       inkscape:locked="false" />
    <sodipodi:guide
       position="135.46666,135.46666"
       orientation="512,0"
       id="guide2"
       inkscape:locked="false" />
    <sodipodi:guide
       position="135.46666,0"
       orientation="0,-512"
       id="guide3"
       inkscape:locked="false" />
    <sodipodi:guide
       position="0,0"
       orientation="-512,0"
       id="guide4"
       inkscape:locked="false" />
    <sodipodi:guide
       position="67.73333,67.733332"
       orientation="-1,0"
       id="guide5"
       inkscape:locked="false"
       inkscape:label=""
       inkscape:color="rgb(0,134,229)" />
    <sodipodi:guide
       position="-10.000635,-120.53333"
       orientation="0,1"
       id="guide6"
       inkscape:locked="false"
       inkscape:label=""
       inkscape:color="rgb(0,134,229)" />
    <sodipodi:guide
       position="-8.4911051,67.733332"
       orientation="0,1"
       id="guide7"
       inkscape:locked="false"
       inkscape:label=""
       inkscape:color="rgb(0,134,229)" />
    <sodipodi:guide
       position="67.733332,67.733332"
       orientation="0.70710678,-0.70710678"
       id="guide8"
       inkscape:locked="false"
       inkscape:label=""
       inkscape:color="rgb(0,134,229)" />
    <sodipodi:guide
       position="256,-120.53333"
       orientation="-0.70710678,-0.70710678"
       id="guide9"
       inkscape:locked="false"
       inkscape:label=""
       inkscape:color="rgb(0,134,229)" />
  </sodipodi:namedview>
  <defs
     id="defs1">
    <inkscape:path-effect
       effect="offset"
       id="path-effect7"
       is_visible="true"
       lpeversion="1.2"
       linejoin_type="miter"
       unit="mm"
       offset="7"
       miter_limit="4"
       attempt_force_join="true"
       update_on_knot_move="true" />
    <inkscape:path-effect
       effect="offset"
       id="path-effect5"
       is_visible="true"
       lpeversion="1.2"
       linejoin_type="miter"
       unit="mm"
       offset="7"
       miter_limit="4"
       attempt_force_join="false"
       update_on_knot_move="true" />
    <inkscape:path-effect
       effect="offset"
       id="path-effect16"
       is_visible="true"
       lpeversion="1.2"
       linejoin_type="miter"
       unit="mm"
       offset="7"
       miter_limit="4"
       attempt_force_join="true"
       update_on_knot_move="true" />
  </defs>
  <g
     inkscape:label="Layer 1"
     inkscape:groupmode="layer"
     id="layer1"
     style="display:none">
    <circle
       style="fill:none;stroke:#00ceeb;stroke-width:0.919;stroke-dasharray:none;stroke-opacity:1"
       id="circle9"
       cx="67.73333"
       cy="67.73333"
       r="58.208332"
       inkscape:label="circle9" />
    <path
       style="display:none;fill:none;stroke:#eb00af;stroke-width:0.919;stroke-dasharray:none;stroke-opacity:1"
       id="circle10"
       sodipodi:type="arc"
       sodipodi:cx="67.73333"
       sodipodi:cy="67.73333"
       sodipodi:rx="58.208332"
       sodipodi:ry="58.208332"
       sodipodi:start="5.5850536"
       sodipodi:end="0.78539816"
       sodipodi:arc-type="arc"
       d="m 112.3235,30.317735 a 58.208332,58.208332 0 0 1 -3.43066,78.575105"
       sodipodi:open="true" />
    <path
       style="display:none;fill:none;stroke:#eb00af;stroke-width:0.919;stroke-dasharray:none;stroke-opacity:1"
       id="path1"
       sodipodi:type="arc"
       sodipodi:cx="67.73333"
       sodipodi:cy="67.73333"
       sodipodi:rx="58.208332"
       sodipodi:ry="58.208332"
       sodipodi:start="0.87266463"
       sodipodi:end="2.268928"
       sodipodi:arc-type="arc"
       d="m 105.14892,112.3235 a 58.208332,58.208332 0 0 1 -74.831184,0"
       sodipodi:open="true" />
    <path
       style="display:inline;fill:none;stroke:#eb00af;stroke-width:0.919;stroke-dasharray:none;stroke-opacity:1"
       id="path2"
       sodipodi:type="arc"
       sodipodi:cx="67.73333"
       sodipodi:cy="67.73333"
       sodipodi:rx="58.208332"
       sodipodi:ry="58.208332"
       sodipodi:start="3.9269908"
       sodipodi:end="5.4977871"
       sodipodi:arc-type="arc"
       d="m 26.573823,26.573824 a 58.208332,58.208332 0 0 1 82.319007,-2e-6"
       sodipodi:open="true" />
    <path
       style="display:inline;fill:none;stroke:#eb00af;stroke-width:0.919;stroke-dasharray:none;stroke-opacity:1"
       id="path12"
       sodipodi:type="arc"
       sodipodi:cx="67.73333"
       sodipodi:cy="67.73333"
       sodipodi:rx="58.208332"
       sodipodi:ry="58.208332"
       sodipodi:start="2.3561945"
       sodipodi:end="3.8397244"
       sodipodi:arc-type="arc"
       d="M 26.573823,108.89284 A 58.208332,58.208332 0 0 1 23.143162,30.317733"
       sodipodi:open="true" />
  </g>
  <g
     inkscape:groupmode="layer"
     id="layer3"
     inkscape:label="Layer 3"
     style="display:none">
    <path
       style="display:inline;fill:none;stroke:#00beeb;stroke-width:2.11667;stroke-dasharray:none;stroke-opacity:1"
       id="path13"
       sodipodi:type="arc"
       sodipodi:cx="67.73333"
       sodipodi:cy="67.73333"
       sodipodi:rx="58.208332"
       sodipodi:ry="58.208332"
       sodipodi:start="3.9269908"
       sodipodi:end="5.4977871"
       sodipodi:arc-type="arc"
       d="m 26.573823,26.573824 a 58.208332,58.208332 0 0 1 82.319007,-2e-6"
       sodipodi:open="true" />
    <path
       style="display:inline;fill:none;stroke:#00beeb;stroke-width:2.11667;stroke-dasharray:none;stroke-opacity:1"
       id="path11"
       sodipodi:type="arc"
       sodipodi:cx="67.73333"
       sodipodi:cy="67.73333"
       sodipodi:rx="58.208332"
       sodipodi:ry="58.208332"
       sodipodi:start="0.87266463"
       sodipodi:end="2.268928"
       sodipodi:arc-type="arc"
       d="m 105.14892,112.3235 a 58.208332,58.208332 0 0 1 -74.831184,0"
       sodipodi:open="true" />
    <path
       style="fill:none;stroke:#00beeb;stroke-width:2.09779;stroke-linejoin:bevel;stroke-dasharray:none;stroke-opacity:1"
       d="m 67.733332,57.833843 -5e-6,-48.3088453"
       id="path3" />
  </g>
  <g
     inkscape:groupmode="layer"
     id="layer2"
     inkscape:label="Layer 2"
     style="display:none">
    <path
       id="path15"
       style="display:inline;fill:none;stroke:#00beeb;stroke-width:4.23333;stroke-dasharray:none;stroke-opacity:1"
       d="M 23.14329,30.317529 C 3.7431333,53.437731 5.2321812,87.551706 26.573572,108.89309 l 40.95952,-40.870738 41.359998,40.870738 c 21.34158,-21.341568 22.83085,-55.455357 3.43029,-78.575561"
       sodipodi:nodetypes="ccccc" />
    <path
       id="path16"
       style="display:inline;fill:none;stroke:#00beeb;stroke-width:4.23333;stroke-dasharray:none;stroke-opacity:1"
       d="m 28.518068,100.53511 c -0.521146,-0.50134 -1.321929,-1.497869 -1.805198,-2.144166 -0.483269,-0.646297 -0.949436,-1.301738 -1.398471,-1.965677 -0.449035,-0.663939 -0.880939,-1.336378 -1.295683,-2.01667 -0.414745,-0.680292 -0.81233,-1.368438 -1.192727,-2.063794 -0.380398,-0.695356 -0.743608,-1.397921 -1.089603,-2.107051 -0.345994,-0.70913 -0.674773,-1.424824 -0.986308,-2.146439 -2.49228,-5.772917 -3.880961,-11.92472 -4.151639,-18.125337 -0.270679,-6.200618 0.576644,-12.450051 2.556371,-18.41823 1.979726,-5.968179 5.091856,-11.655103 9.350791,-16.730703 M 108.55717,98.683537 67.149597,57.883876 26.757761,99.264096 M 106.96112,34.817097 c 1.06476,1.268901 2.05784,2.576008 2.97946,3.916165 0.92163,1.340157 1.7718,2.713363 2.55075,4.114461 0.77895,1.401098 1.48667,2.830089 2.12338,4.281815 0.63672,1.451726 1.20244,2.926186 1.69738,4.418225 0.49494,1.492039 0.9191,3.001656 1.27271,4.523694 0.35361,1.522038 0.63667,3.056496 0.8494,4.598219 0.21273,1.541722 0.35514,3.090708 0.42744,4.641801 0.0723,1.551093 0.0745,3.104292 0.007,4.654441 -0.0677,1.550149 -0.20523,3.097247 -0.41243,4.636138 -0.2072,1.53889 -0.48405,3.069573 -0.83033,4.586892 -0.34628,1.517318 -0.76198,3.021271 -1.24688,4.506703 -0.48491,1.485431 -1.03902,2.952341 -1.6621,4.395572 -0.62308,1.44323 -1.31514,2.862782 -2.07594,4.253497 -0.76081,1.390716 -1.59037,2.752595 -2.48845,4.080481 -0.89809,1.327886 -2.26566,3.235025 -2.89961,3.876519"
       sodipodi:nodetypes="csssssssscccccssssssssssssssc" />
    <path
       id="path5"
       style="display:none;fill:none;stroke:#00beeb;stroke-width:4.23333;stroke-dasharray:none;stroke-opacity:1"
       d="M 31.523319,103.94334 C 12.783002,85.203031 11.469861,55.119443 28.505601,34.817043 M 113.84284,103.94334 67.733331,57.833842 21.623825,103.94334 M 106.96112,34.817097 c 17.0361,20.302413 15.72278,50.385695 -3.01778,69.126243"
       sodipodi:nodetypes="ccccccc"
       inkscape:path-effect="#path-effect7"
       inkscape:original-d="M 23.14329,30.317529 C 3.7431333,53.437731 5.2321812,87.551706 26.573572,108.89309 m 0,0 41.159759,-41.159754 41.159759,41.159754 m 0,0 c 21.34158,-21.341568 22.83085,-55.455357 3.43029,-78.575561" />
  </g>
  <g
     id="g14"
     transform="matrix(0.708,0,0,0.708,19.778165,19.778609)">
    <path
       style="display:inline;fill:none;stroke:#00beeb;stroke-width:2.09779;stroke-linejoin:bevel;stroke-dasharray:none;stroke-opacity:1"
       d="m 67.733332,57.833843 -5e-6,-48.3088453"
       id="path9" />
    <path
       style="display:inline;fill:none;stroke:#00beeb;stroke-width:2.11667;stroke-dasharray:none;stroke-opacity:1"
       id="path10"
       sodipodi:type="arc"
       sodipodi:cx="67.73333"
       sodipodi:cy="67.73333"
       sodipodi:rx="58.208332"
       sodipodi:ry="58.208332"
       sodipodi:start="0.87266463"
       sodipodi:end="2.268928"
       sodipodi:arc-type="arc"
       d="m 105.14892,112.3235 a 58.208332,58.208332 0 0 1 -74.831184,0"
       sodipodi:open="true" />
    <path
       style="display:inline;fill:none;stroke:#00beeb;stroke-width:2.11667;stroke-dasharray:none;stroke-opacity:1"
       id="path14"
       sodipodi:type="arc"
       sodipodi:cx="67.73333"
       sodipodi:cy="67.73333"
       sodipodi:rx="58.208332"
       sodipodi:ry="58.208332"
       sodipodi:start="3.9269908"
       sodipodi:end="5.4977871"
       sodipodi:arc-type="arc"
       d="m 26.573823,26.573824 a 58.208332,58.208332 0 0 1 82.319007,-2e-6"
       sodipodi:open="true" />
    <path
       id="path8"
       style="display:inline;fill:none;stroke:#00beeb;stroke-width:4.23333;stroke-dasharray:none;stroke-opacity:1"
       d="M 23.14329,30.317529 C 3.7431333,53.437731 5.2321812,87.551706 26.573572,108.89309 l 40.95952,-40.870738 41.359998,40.870738 c 21.34158,-21.341568 22.83085,-55.455357 3.43029,-78.575561"
       sodipodi:nodetypes="ccccc" />
    <path
       id="path7"
       style="display:inline;fill:none;stroke:#00beeb;stroke-width:4.23333;stroke-dasharray:none;stroke-opacity:1"
       d="m 28.518068,100.53511 c -0.521146,-0.50134 -1.321929,-1.497869 -1.805198,-2.144166 -0.483269,-0.646297 -0.949436,-1.301738 -1.398471,-1.965677 -0.449035,-0.663939 -0.880939,-1.336378 -1.295683,-2.01667 -0.414745,-0.680292 -0.81233,-1.368438 -1.192727,-2.063794 -0.380398,-0.695356 -0.743608,-1.397921 -1.089603,-2.107051 -0.345994,-0.70913 -0.674773,-1.424824 -0.986308,-2.146439 -2.49228,-5.772917 -3.880961,-11.92472 -4.151639,-18.125337 -0.270679,-6.200618 0.576644,-12.450051 2.556371,-18.41823 1.979726,-5.968179 5.091856,-11.655103 9.350791,-16.730703 M 108.55717,98.683537 67.149597,57.883876 26.757761,99.264096 M 106.96112,34.817097 c 1.06476,1.268901 2.05784,2.576008 2.97946,3.916165 0.92163,1.340157 1.7718,2.713363 2.55075,4.114461 0.77895,1.401098 1.48667,2.830089 2.12338,4.281815 0.63672,1.451726 1.20244,2.926186 1.69738,4.418225 0.49494,1.492039 0.9191,3.001656 1.27271,4.523694 0.35361,1.522038 0.63667,3.056496 0.8494,4.598219 0.21273,1.541722 0.35514,3.090708 0.42744,4.641801 0.0723,1.551093 0.0745,3.104292 0.007,4.654441 -0.0677,1.550149 -0.20523,3.097247 -0.41243,4.636138 -0.2072,1.53889 -0.48405,3.069573 -0.83033,4.586892 -0.34628,1.517318 -0.76198,3.021271 -1.24688,4.506703 -0.48491,1.485431 -1.03902,2.952341 -1.6621,4.395572 -0.62308,1.44323 -1.31514,2.862782 -2.07594,4.253497 -0.76081,1.390716 -1.59037,2.752595 -2.48845,4.080481 -0.89809,1.327886 -2.26566,3.235025 -2.89961,3.876519"
       sodipodi:nodetypes="csssssssscccccssssssssssssssc" />
  </g>
  <g
     inkscape:groupmode="layer"
     id="layer4"
     inkscape:label="Layer 4" />
</svg>
